<?xml version="1.0" standalone="no"?><!DOCTYPE svg PUBLIC "-//W3C//DTD SVG 1.1//EN" "http://www.w3.org/Graphics/SVG/1.1/DTD/svg11.dtd"><svg class="icon" width="200px" height="200.00px" viewBox="0 0 1024 1024" version="1.1" xmlns="http://www.w3.org/2000/svg"><path fill="#000000" d="M698.794667 377.002667c-6.741333-18.176 181.248-186.112 71.594667-322.133333-25.685333-31.786667-112.682667 152.362667-236.288 235.733333-68.138667 45.994667-226.858667 143.872-226.858667 197.973333l0 350.250667c0 65.066667 251.605333 133.973333 442.837333 133.973333 70.101333 0 171.562667-439.04 171.562667-508.842667 0-69.973333-216.064-68.778667-222.805333-86.997333zM256 381.866667c-33.621333 0-153.6 20.48-153.6 159.829333l0 248.234667c0 139.349333 119.978667 154.666667 153.6 154.666667s-51.2-29.269333-51.2-115.669333l0-326.314667c0-90.538667 84.821333-120.789333 51.2-120.789333z" /></svg>